<svg id="Layer_1" data-name="Layer 1" xmlns="http://www.w3.org/2000/svg" viewBox="0 0 1024 1024"><defs><style>.cls-1,.cls-3{fill:none;}.cls-2{fill:#262626;}.cls-3{stroke:#f8de3c;stroke-miterlimit:10;stroke-width:20px;}.cls-4{fill:#f8de3c;}</style></defs><line class="cls-1" x1="429.82" y1="566.76" x2="429.04" y2="565.43"/><path class="cls-2" d="M953.67,743.31V284.69a44.5,44.5,0,0,0-22.25-38.54L534.25,16.85a44.5,44.5,0,0,0-44.5,0L92.58,246.15a44.5,44.5,0,0,0-22.25,38.54V743.31a44.5,44.5,0,0,0,22.25,38.54l397.17,229.3a44.5,44.5,0,0,0,44.5,0l397.17-229.3A44.5,44.5,0,0,0,953.67,743.31Z"/><path class="cls-3" d="M899.4,711.33V316.7a44.5,44.5,0,0,0-22.25-38.54L535.39,80.85a44.5,44.5,0,0,0-44.5,0L149.13,278.16a44.5,44.5,0,0,0-22.25,38.54V711.33a44.5,44.5,0,0,0,22.25,38.54L490.89,947.19a44.5,44.5,0,0,0,44.5,0L877.15,749.87A44.5,44.5,0,0,0,899.4,711.33Z"/><path class="cls-2" d="M517.48,631.58,480.88,695a8.34,8.34,0,0,0,0,8.34l66.43,115.07a8.33,8.33,0,0,1,0,8.32l-25.5,44.38a8.34,8.34,0,0,1-14.45,0L405.14,693.21a8.33,8.33,0,0,1,0-8.32l29.94-51.82,3.24-5.66,1.47-2.54,38-65.81a8.34,8.34,0,0,1,7.22-4.17H616.14a8.34,8.34,0,0,0,7.22-4.17L708.64,403a8.34,8.34,0,0,0-7.22-12.5H589.53a8.34,8.34,0,0,1-7.22-12.5l9.46-16.39,22.79-39.46a8.34,8.34,0,0,1,7.22-4.17H825.31a8.34,8.34,0,0,1,7.23,12.49L664.28,623.23a8.33,8.33,0,0,1-7.23,4.18H524.7A8.34,8.34,0,0,0,517.48,631.58Z"/><path class="cls-2" d="M557.92,365.58l-261.3.3a8.33,8.33,0,0,0-8.32,8.65h0a8.34,8.34,0,0,0,8.27,8l241.19,1.59a8.34,8.34,0,0,1,7.18,12.48L397.23,654.31a8.34,8.34,0,0,1-14.46,0l-46.24-80.44a8.34,8.34,0,0,1,0-8.3L357,529.9a8.33,8.33,0,0,1,14.55.16l12.9,23.7a8.34,8.34,0,0,0,14.55.16l60.93-106.29a8.34,8.34,0,0,0-7.28-12.48L295.43,436a8.32,8.32,0,0,0-7.18,4.19l-7,12.25a8.33,8.33,0,0,1-14.45,0l-70.12-122A8.33,8.33,0,0,1,203.87,318H575.63a8.34,8.34,0,0,1,7.23,12.48l-17.72,30.91A8.34,8.34,0,0,1,557.92,365.58Z"/><path class="cls-4" d="M516.23,605.54,482.82,663.4a7.61,7.61,0,0,0,0,7.61l60.65,105.06a7.61,7.61,0,0,1,0,7.6l-23.28,40.51a7.61,7.61,0,0,1-13.2,0L413.66,661.81a7.61,7.61,0,0,1,0-7.6L441,606.89l2.95-5.16,1.35-2.32L480,539.33a7.6,7.6,0,0,1,6.59-3.81H606.3a7.61,7.61,0,0,0,6.59-3.8l77.86-134.85a7.61,7.61,0,0,0-6.59-11.41H582A7.61,7.61,0,0,1,575.42,374l8.64-15,20.8-36a7.61,7.61,0,0,1,6.59-3.8H797.27a7.6,7.6,0,0,1,6.59,11.4L650.25,597.91a7.62,7.62,0,0,1-6.6,3.82H522.82A7.6,7.6,0,0,0,516.23,605.54Z"/><path class="cls-4" d="M553.15,362.69,314.59,363a7.62,7.62,0,0,0-7.6,7.9h0a7.63,7.63,0,0,0,7.56,7.32l220.19,1.45a7.61,7.61,0,0,1,6.55,11.4L406.44,626.29a7.61,7.61,0,0,1-13.2,0L351,552.86a7.62,7.62,0,0,1,0-7.58l18.69-32.57a7.61,7.61,0,0,1,13.28.14l11.78,21.64a7.6,7.6,0,0,0,13.28.14l55.63-97A7.62,7.62,0,0,0,457,426.2L313.5,427a7.58,7.58,0,0,0-6.55,3.82L300.53,442a7.61,7.61,0,0,1-13.2,0l-64-111.37a7.61,7.61,0,0,1,6.6-11.4H569.31a7.61,7.61,0,0,1,6.61,11.39l-16.18,28.22A7.63,7.63,0,0,1,553.15,362.69Z"/></svg>